<?xml version="1.0" standalone="no"?><!DOCTYPE svg PUBLIC "-//W3C//DTD SVG 1.1//EN" "http://www.w3.org/Graphics/SVG/1.1/DTD/svg11.dtd"><svg t="1652412216399" class="icon" viewBox="0 0 1024 1024" version="1.1" xmlns="http://www.w3.org/2000/svg" p-id="2941" xmlns:xlink="http://www.w3.org/1999/xlink" width="200" height="200"><defs><style type="text/css">@font-face { font-family: feedback-iconfont; src: url("//at.alicdn.com/t/font_1031158_u69w8yhxdu.woff2?t=1630033759944") format("woff2"), url("//at.alicdn.com/t/font_1031158_u69w8yhxdu.woff?t=1630033759944") format("woff"), url("//at.alicdn.com/t/font_1031158_u69w8yhxdu.ttf?t=1630033759944") format("truetype"); }
</style></defs><path d="M258.698 193.045l511.997 0 0 63.999L258.698 257.044 258.698 193.045zM256.991 321.668l511.996 0 0 63.999L256.991 385.667 256.991 321.668zM256.991 449.66l329.245 0 0 64L256.991 513.66 256.991 449.66zM256.991 577.662l138.1 0 0 64-138.1 0L256.991 577.662zM898.695 0 130.701 0C95.356 0 66.702 28.654 66.702 64l0 895.992c0 35.345 28.654 63.999 63.999 63.999l299.4-0.328 0-63.999-299.4 0.328L130.701 64l767.995 0 0 409.599 63.999 0L962.695 64C962.693 28.654 934.035 0 898.695 0L898.695 0z" p-id="2942"></path><path d="M759.591 557.657c-128.769 0-233.165 104.406-233.165 233.176 0 128.759 104.396 233.165 233.165 233.165s233.165-104.406 233.165-233.165C992.756 662.063 888.359 557.657 759.591 557.657zM759.591 965.701c-96.416 0-174.879-78.442-174.879-174.868 0-96.416 78.463-174.879 174.879-174.879 96.438 0 174.88 78.464 174.88 174.879C934.47 887.259 856.028 965.701 759.591 965.701zM788.739 778.762 788.739 674.239c0-16.108-13.039-29.138-29.148-29.138-16.108 0-29.148 13.03-29.148 29.138l0 116.688c0.021 8.022 3.279 15.286 8.571 20.535l58.253 58.276c5.693 5.692 13.157 8.528 20.621 8.528 7.453 0 14.917-2.836 20.609-8.528 11.375-11.385 11.375-29.845 0-41.229L788.739 778.762z" p-id="2943"></path></svg>