<?xml version="1.0" standalone="no"?><!DOCTYPE svg PUBLIC "-//W3C//DTD SVG 1.1//EN" "http://www.w3.org/Graphics/SVG/1.1/DTD/svg11.dtd"><svg t="1651802569343" class="icon" viewBox="0 0 1024 1024" version="1.1" xmlns="http://www.w3.org/2000/svg" p-id="5878" xmlns:xlink="http://www.w3.org/1999/xlink" width="200" height="200"><defs><style type="text/css">@font-face { font-family: feedback-iconfont; src: url("//at.alicdn.com/t/font_1031158_u69w8yhxdu.woff2?t=1630033759944") format("woff2"), url("//at.alicdn.com/t/font_1031158_u69w8yhxdu.woff?t=1630033759944") format("woff"), url("//at.alicdn.com/t/font_1031158_u69w8yhxdu.ttf?t=1630033759944") format("truetype"); }
</style></defs><path d="M941 786s-53-0.5-41.4-0.6h12.7-12.7c-21.9 0.1-28.9 0.6-30 0.6 23.6-189.5-264.2-260.9-264.2-290.7 0-23.2 6.8-26.7 28-48.4 22.1-22.7 38.6-62.1 42.4-115.1 10.5-146.9-86.3-175.6-6.1-175.6s135.6 66.1 135.6 147.6c0 53.1-40.1 113.9-48.4 127.9-8.9 15-9.8 46.9-10.1 50.8-1.1 58.7 212.8 78.8 212.9 203.8h0.7v79.9c0 11-8.7 19.8-19.4 19.8zM523.9 521.5c-1.3 72.3 266 97 266.1 250.9h0.8v98.4c0 13.4-10.8 24.2-24.2 24.2H88.4c-13.4 0-24.2-10.8-24.2-24.2v-98.4h0.8c0.6-165.9 264.8-181.3 266.1-250.9 0.4-3.6 0.5-41.7-12.6-62.5-13.8-22.1-60.6-92-60.6-157.4 0-100.3 69.2-181.7 169.5-181.7S597 201.2 597 301.6c0 65.4-53.6 138.6-60.6 157.4-7.5 20.4-12.2 57.7-12.5 62.5z" p-id="5879"></path></svg>