<?xml version="1.0" standalone="no"?><!DOCTYPE svg PUBLIC "-//W3C//DTD SVG 1.1//EN" "http://www.w3.org/Graphics/SVG/1.1/DTD/svg11.dtd"><svg t="1658995680400" class="icon" viewBox="0 0 1408 1024" version="1.1" xmlns="http://www.w3.org/2000/svg" p-id="1800" xmlns:xlink="http://www.w3.org/1999/xlink" width="275" height="200"><defs><style type="text/css">@font-face { font-family: feedback-iconfont; src: url("//at.alicdn.com/t/font_1031158_u69w8yhxdu.woff2?t=1630033759944") format("woff2"), url("//at.alicdn.com/t/font_1031158_u69w8yhxdu.woff?t=1630033759944") format("woff"), url("//at.alicdn.com/t/font_1031158_u69w8yhxdu.ttf?t=1630033759944") format("truetype"); }
</style></defs><path d="M620.8 454.4h19.2c19.2 0 32-12.8 32-32s-12.8-32-32-32h-19.2c-44.8 0-76.8-25.6-76.8-57.6s32-57.6 76.8-57.6c12.8 0 19.2 0 32 6.4 19.2 6.4 38.4-6.4 44.8-25.6 0-19.2 25.6-32 51.2-32 32 0 51.2 19.2 51.2 38.4v6.4c-6.4 19.2 6.4 38.4 25.6 44.8 25.6 6.4 38.4 19.2 38.4 38.4s-25.6 38.4-51.2 38.4h-25.6c-19.2 0-32 12.8-32 32s12.8 32 32 32h25.6c64 0 115.2-44.8 115.2-102.4 0-38.4-25.6-76.8-64-89.6 0-57.6-57.6-102.4-115.2-102.4-44.8 0-83.2 19.2-102.4 57.6h-25.6c-76.8 0-140.8 51.2-140.8 121.6s64 115.2 140.8 115.2zM544 768h-320c-19.2 0-32 12.8-32 32s12.8 32 32 32h320c19.2 0 32-12.8 32-32s-12.8-32-32-32z" fill="" p-id="1801"></path><path d="M1388.8 716.8v-19.2l-153.6-544C1216 64 1132.8 0 1056 0h-704C275.2 0 192 64 166.4 147.2L12.8 691.2v19.2c-6.4 32-12.8 57.6-12.8 89.6C0 921.6 102.4 1024 224 1024h960c121.6 0 224-102.4 224-224 0-32-6.4-57.6-19.2-83.2zM230.4 166.4C243.2 108.8 300.8 64 352 64h704c51.2 0 102.4 44.8 121.6 102.4l121.6 448c-32-25.6-70.4-38.4-115.2-38.4h-960c-44.8 0-83.2 12.8-115.2 32l121.6-441.6zM1184 960h-960C134.4 960 64 889.6 64 800c0-12.8 0-19.2 6.4-32v-6.4c12.8-70.4 76.8-121.6 153.6-121.6h960c76.8 0 140.8 51.2 153.6 128 0 12.8 6.4 19.2 6.4 32 0 89.6-70.4 160-160 160z" fill="" p-id="1802"></path><path d="M1120 704c-51.2 0-96 44.8-96 96s44.8 96 96 96 96-44.8 96-96-44.8-96-96-96z m0 128c-19.2 0-32-12.8-32-32s12.8-32 32-32 32 12.8 32 32-12.8 32-32 32z" fill="" p-id="1803"></path></svg>