<?xml version="1.0" standalone="no"?><!DOCTYPE svg PUBLIC "-//W3C//DTD SVG 1.1//EN" "http://www.w3.org/Graphics/SVG/1.1/DTD/svg11.dtd"><svg t="1652114750769" class="icon" viewBox="0 0 1024 1024" version="1.1" xmlns="http://www.w3.org/2000/svg" p-id="1329" xmlns:xlink="http://www.w3.org/1999/xlink" width="200" height="200"><defs><style type="text/css">@font-face { font-family: feedback-iconfont; src: url("//at.alicdn.com/t/font_1031158_u69w8yhxdu.woff2?t=1630033759944") format("woff2"), url("//at.alicdn.com/t/font_1031158_u69w8yhxdu.woff?t=1630033759944") format("woff"), url("//at.alicdn.com/t/font_1031158_u69w8yhxdu.ttf?t=1630033759944") format("truetype"); }
</style></defs><path d="M896 896l-45.44-45.12A63.808 63.808 0 0 1 896 832a64 64 0 0 0 64-64V128a64 64 0 0 0-64-64H256a64 64 0 0 0-64 64v5.44c0 17.6-7.04 33.536-18.56 45.12L128 133.44V128A128 128 0 0 1 256 0h640a128 128 0 0 1 128 128v640a128 128 0 0 1-128 128zM64 256v640a64 64 0 0 0 64 64h640a64 64 0 0 0 64-64V256a64 64 0 0 0-64-64H128a64 64 0 0 0-64 64z m704-128a128 128 0 0 1 128 128v640a128 128 0 0 1-128 128H128A128 128 0 0 1 0 896V256a128 128 0 0 1 128-128h640z" p-id="1330"></path><path d="M160 256h384a32 32 0 0 1 0 64H160a32 32 0 0 1 0-64z m576 64a32 32 0 1 1 0-64 32 32 0 0 1 0 64zM64 384h768v64H64v-64z" p-id="1331"></path></svg>