<?xml version="1.0" standalone="no"?><!DOCTYPE svg PUBLIC "-//W3C//DTD SVG 1.1//EN" "http://www.w3.org/Graphics/SVG/1.1/DTD/svg11.dtd"><svg t="1658133794002" class="icon" viewBox="0 0 1024 1024" version="1.1" xmlns="http://www.w3.org/2000/svg" p-id="2475" xmlns:xlink="http://www.w3.org/1999/xlink" width="200" height="200"><defs><style type="text/css">@font-face { font-family: feedback-iconfont; src: url("//at.alicdn.com/t/font_1031158_u69w8yhxdu.woff2?t=1630033759944") format("woff2"), url("//at.alicdn.com/t/font_1031158_u69w8yhxdu.woff?t=1630033759944") format("woff"), url("//at.alicdn.com/t/font_1031158_u69w8yhxdu.ttf?t=1630033759944") format("truetype"); }
</style></defs><path d="M696.32 101.49888c16.26112 0 31.90784 6.79936 43.4176 18.88256 11.50976 12.0832 17.98144 28.50816 17.98144 45.62944v129.06496h61.39904c33.91488 0 61.39904 28.8768 61.39904 64.55296v494.7968c0 35.6352-27.48416 64.55296-61.39904 64.55296H205.16864c-33.91488 0-61.39904-28.91776-61.39904-64.55296V166.05184c0-35.6352 27.48416-64.55296 61.39904-64.55296H696.32z m61.35808 645.36576v75.28448c0 16.62976 12.00128 30.5152 27.72992 32.11264l2.94912 0.16384c15.81056 0 29.04064-12.61568 30.55616-29.16352l0.12288-3.11296V381.17376c0-5.69344-2.17088-11.18208-5.98016-15.19616-3.85024-4.01408-9.05216-6.30784-14.45888-6.30784h-40.91904v387.19488zM675.84 166.05184H225.60768c-10.36288 0-19.08736 8.15104-20.31616 19.00544l-0.16384 2.49856v645.36576c0 10.89536 7.7824 20.0704 18.06336 21.38112l2.37568 0.16384H696.32V187.55584c0-5.69344-2.17088-11.18208-5.98016-15.19616-3.8912-4.05504-9.09312-6.30784-14.49984-6.30784z m-71.63904 516.25984c16.95744 0 30.67904 14.45888 30.67904 32.27648s-13.76256 32.27648-30.67904 32.27648H297.24672c-16.95744 0-30.67904-14.45888-30.67904-32.27648s13.76256-32.27648 30.67904-32.27648h306.95424z m0-172.07296c16.95744 0 30.67904 14.45888 30.67904 32.27648s-13.76256 32.27648-30.67904 32.27648H297.24672c-16.95744 0-30.67904-14.45888-30.67904-32.27648s13.76256-32.27648 30.67904-32.27648h306.95424zM471.20384 273.6128c5.44768 0 10.6496 2.2528 14.45888 6.30784a22.03648 22.03648 0 0 1 5.98016 15.19616v86.05696c0 5.69344-2.17088 11.18208-5.98016 15.19616-3.85024 4.05504-9.05216 6.30784-14.45888 6.30784H287.00672c-11.30496 0-20.48-9.6256-20.48-21.504V295.1168c0-5.69344 2.17088-11.18208 5.98016-15.19616 3.85024-4.01408 9.05216-6.30784 14.45888-6.30784h184.23808z m0 0" p-id="2476"></path></svg>