<?xml version="1.0" standalone="no"?><!DOCTYPE svg PUBLIC "-//W3C//DTD SVG 1.1//EN" "http://www.w3.org/Graphics/SVG/1.1/DTD/svg11.dtd"><svg t="1651802669197" class="icon" viewBox="0 0 1024 1024" version="1.1" xmlns="http://www.w3.org/2000/svg" p-id="10094" xmlns:xlink="http://www.w3.org/1999/xlink" width="200" height="200"><defs><style type="text/css">@font-face { font-family: feedback-iconfont; src: url("//at.alicdn.com/t/font_1031158_u69w8yhxdu.woff2?t=1630033759944") format("woff2"), url("//at.alicdn.com/t/font_1031158_u69w8yhxdu.woff?t=1630033759944") format("woff"), url("//at.alicdn.com/t/font_1031158_u69w8yhxdu.ttf?t=1630033759944") format("truetype"); }
</style></defs><path d="M964.062413 726.988884H58.429393c-17.926728 0-32.51195-14.585222-32.51195-32.51195V224.630483c0-17.926728 14.585222-32.51195 32.51195-32.51195h905.63302c17.926728 0 32.51195 14.585222 32.511951 32.51195v469.846451c0 17.926728-14.585222 32.51195-32.511951 32.51195zM58.429393 213.793167c-5.97678 0-10.837317 4.860537-10.837316 10.837316v469.846451c0 5.97678 4.860537 10.837317 10.837316 10.837316h905.63302c5.97678 0 10.837317-4.860537 10.837317-10.837316V224.630483c0-5.97678-4.860537-10.837317-10.837317-10.837316H58.429393z" p-id="10095"></path><path d="M564.745221 329.7362H895.884854v21.674634H564.745221zM564.745221 462.720914H895.884854v21.674634H564.745221zM564.745221 587.767294H895.884854v21.674634H564.745221z" p-id="10096"></path><path d="M273.282811 402.81584m-98.91219 0a98.91219 98.91219 0 1 0 197.82438 0 98.91219 98.91219 0 1 0-197.82438 0Z" p-id="10097"></path><path d="M273.282811 512.565347c-60.515577 0-109.749507-49.23393-109.749507-109.749507 0-60.515577 49.23393-109.749507 109.749507-109.749507 60.515577 0 109.749507 49.23393 109.749507 109.749507 0 60.515577-49.23393 109.749507-109.749507 109.749507z m0-197.824381c-48.563823 0-88.074873 39.511051-88.074874 88.074874 0 48.565629 39.511051 88.074873 88.074874 88.074873 48.565629 0 88.074873-39.511051 88.074873-88.074873 0-48.565629-39.511051-88.074873-88.074873-88.074874z" p-id="10098"></path><path d="M92.660865 631.461549c0-70.063253 82.471981-126.863436 184.205485-126.863436s184.205486 56.800183 184.205486 126.863436" p-id="10099"></path><path d="M471.910959 631.461549h-21.674634c0-63.9781-77.772198-116.02612-173.368168-116.02612s-173.368169 52.04802-173.368169 116.02612h-21.674634c0-37.558528 20.82571-72.586542 58.642527-98.63042 36.581363-25.194955 85.024169-39.070333 136.400276-39.070333s99.817106 13.875378 136.400275 39.070333c37.815011 26.043878 58.642527 61.071892 58.642527 98.63042z" p-id="10100"></path></svg>