<?xml version="1.0" standalone="no"?><!DOCTYPE svg PUBLIC "-//W3C//DTD SVG 1.1//EN" "http://www.w3.org/Graphics/SVG/1.1/DTD/svg11.dtd"><svg t="1658283827246" class="icon" viewBox="0 0 1024 1024" version="1.1" xmlns="http://www.w3.org/2000/svg" p-id="2133" xmlns:xlink="http://www.w3.org/1999/xlink" width="200" height="200"><defs><style type="text/css">@font-face { font-family: feedback-iconfont; src: url("//at.alicdn.com/t/font_1031158_u69w8yhxdu.woff2?t=1630033759944") format("woff2"), url("//at.alicdn.com/t/font_1031158_u69w8yhxdu.woff?t=1630033759944") format("woff"), url("//at.alicdn.com/t/font_1031158_u69w8yhxdu.ttf?t=1630033759944") format("truetype"); }
</style></defs><path d="M512 481.28c92.9792 0 168.6528-75.6736 168.6528-168.6528 0-92.9792-75.6736-168.6528-168.6528-168.6528-92.9792 0-168.6528 75.6736-168.6528 168.6528 0 92.9792 75.6736 168.6528 168.6528 168.6528z m0-296.3456c70.3488 0 127.6928 57.2416 127.6928 127.6928S582.3488 440.32 512 440.32s-127.6928-57.344-127.6928-127.6928 57.344-127.6928 127.6928-127.6928zM800.256 684.1344c-15.7696-37.2736-38.4-70.656-67.1744-99.4304-28.7744-28.7744-62.2592-51.4048-99.4304-67.1744-38.6048-16.384-79.4624-24.6784-121.5488-24.6784s-82.944 8.2944-121.5488 24.6784c-37.2736 15.7696-70.656 38.4-99.4304 67.1744-28.7744 28.7744-51.4048 62.2592-67.1744 99.4304-16.384 38.6048-24.6784 79.4624-24.6784 121.5488v33.3824c0 22.6304 18.3296 40.96 40.96 40.96h543.9488c22.6304 0 40.96-18.3296 40.96-40.96v-33.3824c-0.2048-42.0864-8.4992-82.944-24.8832-121.5488z m-16.2816 134.4512c0 11.264-9.216 20.48-20.48 20.48H260.5056c-11.264 0-20.48-9.216-20.48-20.48v-12.9024c0-149.8112 121.856-271.7696 271.6672-271.9744 149.8112-0.2048 272.384 124.3136 272.384 274.1248v10.752z" p-id="2134"></path></svg>